<svg xmlns="http://www.w3.org/2000/svg" xml:space="preserve" width="1000" height="1000" viewBox="0 0 1000 1000"><rect width="1000" height="1000" rx="333.333" ry="333.333"/><rect width="1000" height="1000" fill="#00c8ff" rx="166.667" ry="166.667"/><rect width="900" height="900" x="50" y="50" rx="138.462" ry="138.462"/><svg xml:space="preserve" width="1000" height="1000" transform="matrix(.76 0 0 .76 120 120)" viewBox="0 0 660 660"><path d="M0 0h660v660H0z"/><circle cx="170" cy="10" r="8.333" fill="#00c8ff"/><circle cx="210" cy="10" r="8.333" fill="#00c8ff"/><path fill="#00c8ff" d="M210 5h20v10h-20z"/><circle cx="230" cy="10" r="8.333" fill="#00c8ff"/><path fill="#00c8ff" d="M230 5h20v10h-20z"/><circle cx="250" cy="10" r="8.333" fill="#00c8ff"/><circle cx="290" cy="10" r="8.333" fill="#00c8ff"/><path fill="#00c8ff" d="M290 5h20v10h-20z"/><circle cx="310" cy="10" r="8.333" fill="#00c8ff"/><path fill="#00c8ff" d="M310 5h20v10h-20z"/><circle cx="330" cy="10" r="8.333" fill="#00c8ff"/><path fill="#00c8ff" d="M330 5h20v10h-20z"/><circle cx="350" cy="10" r="8.333" fill="#00c8ff"/><circle cx="390" cy="10" r="8.333" fill="#00c8ff"/><circle cx="470" cy="10" r="8.333" fill="#00c8ff"/><path fill="#00c8ff" d="M470 5h20v10h-20z"/><circle cx="490" cy="10" r="8.333" fill="#00c8ff"/><circle cx="210" cy="30" r="8.333" fill="#00c8ff"/><circle cx="330" cy="30" r="8.333" fill="#00c8ff"/><path fill="#00c8ff" d="M330 25h20v10h-20z"/><circle cx="350" cy="30" r="8.333" fill="#00c8ff"/><circle cx="390" cy="30" r="8.333" fill="#00c8ff"/><circle cx="430" cy="30" r="8.333" fill="#00c8ff"/><path fill="#00c8ff" d="M430 25h20v10h-20z"/><circle cx="450" cy="30" r="8.333" fill="#00c8ff"/><circle cx="490" cy="30" r="8.333" fill="#00c8ff"/><circle cx="190" cy="50" r="8.333" fill="#00c8ff"/><path fill="#00c8ff" d="M190 45h20v10h-20z"/><circle cx="210" cy="50" r="8.333" fill="#00c8ff"/><circle cx="270" cy="50" r="8.333" fill="#00c8ff"/><circle cx="390" cy="50" r="8.333" fill="#00c8ff"/><path fill="#00c8ff" d="M390 45h20v10h-20z"/><circle cx="410" cy="50" r="8.333" fill="#00c8ff"/><path fill="#00c8ff" d="M410 45h20v10h-20z"/><circle cx="430" cy="50" r="8.333" fill="#00c8ff"/><path fill="#00c8ff" d="M430 45h20v10h-20z"/><circle cx="450" cy="50" r="8.333" fill="#00c8ff"/><circle cx="490" cy="50" r="8.333" fill="#00c8ff"/><circle cx="170" cy="70" r="8.333" fill="#00c8ff"/><circle cx="210" cy="70" r="8.333" fill="#00c8ff"/><path fill="#00c8ff" d="M210 65h20v10h-20z"/><circle cx="230" cy="70" r="8.333" fill="#00c8ff"/><circle cx="290" cy="70" r="8.333" fill="#00c8ff"/><path fill="#00c8ff" d="M290 65h20v10h-20z"/><circle cx="310" cy="70" r="8.333" fill="#00c8ff"/><circle cx="350" cy="70" r="8.333" fill="#00c8ff"/><path fill="#00c8ff" d="M350 65h20v10h-20z"/><circle cx="370" cy="70" r="8.333" fill="#00c8ff"/><circle cx="470" cy="70" r="8.333" fill="#00c8ff"/><circle cx="170" cy="90" r="8.333" fill="#00c8ff"/><circle cx="210" cy="90" r="8.333" fill="#00c8ff"/><path fill="#00c8ff" d="M210 85h20v10h-20z"/><circle cx="230" cy="90" r="8.333" fill="#00c8ff"/><circle cx="270" cy="90" r="8.333" fill="#00c8ff"/><path fill="#00c8ff" d="M270 85h20v10h-20z"/><circle cx="290" cy="90" r="8.333" fill="#00c8ff"/><circle cx="370" cy="90" r="8.333" fill="#00c8ff"/><path fill="#00c8ff" d="M370 85h20v10h-20z"/><circle cx="390" cy="90" r="8.333" fill="#00c8ff"/><path fill="#00c8ff" d="M390 85h20v10h-20z"/><circle cx="410" cy="90" r="8.333" fill="#00c8ff"/><circle cx="450" cy="90" r="8.333" fill="#00c8ff"/><path fill="#00c8ff" d="M450 85h20v10h-20z"/><circle cx="470" cy="90" r="8.333" fill="#00c8ff"/><circle cx="170" cy="110" r="8.333" fill="#00c8ff"/><path fill="#00c8ff" d="M170 105h20v10h-20z"/><circle cx="190" cy="110" r="8.333" fill="#00c8ff"/><path fill="#00c8ff" d="M190 105h20v10h-20z"/><circle cx="210" cy="110" r="8.333" fill="#00c8ff"/><path fill="#00c8ff" d="M210 105h20v10h-20z"/><circle cx="230" cy="110" r="8.333" fill="#00c8ff"/><circle cx="330" cy="110" r="8.333" fill="#00c8ff"/><path fill="#00c8ff" d="M330 105h20v10h-20z"/><circle cx="350" cy="110" r="8.333" fill="#00c8ff"/><circle cx="390" cy="110" r="8.333" fill="#00c8ff"/><path fill="#00c8ff" d="M390 105h20v10h-20z"/><circle cx="410" cy="110" r="8.333" fill="#00c8ff"/><path fill="#00c8ff" d="M410 105h20v10h-20z"/><circle cx="430" cy="110" r="8.333" fill="#00c8ff"/><path fill="#00c8ff" d="M430 105h20v10h-20z"/><circle cx="450" cy="110" r="8.333" fill="#00c8ff"/><path fill="#00c8ff" d="M450 105h20v10h-20z"/><circle cx="470" cy="110" r="8.333" fill="#00c8ff"/><path fill="#00c8ff" d="M470 105h20v10h-20z"/><circle cx="490" cy="110" r="8.333" fill="#00c8ff"/><circle cx="170" cy="130" r="8.333" fill="#00c8ff"/><circle cx="210" cy="130" r="8.333" fill="#00c8ff"/><circle cx="250" cy="130" r="8.333" fill="#00c8ff"/><circle cx="290" cy="130" r="8.333" fill="#00c8ff"/><circle cx="330" cy="130" r="8.333" fill="#00c8ff"/><circle cx="370" cy="130" r="8.333" fill="#00c8ff"/><circle cx="410" cy="130" r="8.333" fill="#00c8ff"/><circle cx="450" cy="130" r="8.333" fill="#00c8ff"/><circle cx="490" cy="130" r="8.333" fill="#00c8ff"/><circle cx="170" cy="150" r="8.333" fill="#00c8ff"/><circle cx="210" cy="150" r="8.333" fill="#00c8ff"/><circle cx="310" cy="150" r="8.333" fill="#00c8ff"/><path fill="#00c8ff" d="M310 145h20v10h-20z"/><circle cx="330" cy="150" r="8.333" fill="#00c8ff"/><path fill="#00c8ff" d="M330 145h20v10h-20z"/><circle cx="350" cy="150" r="8.333" fill="#00c8ff"/><circle cx="450" cy="150" r="8.333" fill="#00c8ff"/><circle cx="490" cy="150" r="8.333" fill="#00c8ff"/><circle cx="10" cy="170" r="8.333" fill="#00c8ff"/><circle cx="90" cy="170" r="8.333" fill="#00c8ff"/><circle cx="130" cy="170" r="8.333" fill="#00c8ff"/><path fill="#00c8ff" d="M130 165h20v10h-20z"/><circle cx="150" cy="170" r="8.333" fill="#00c8ff"/><path fill="#00c8ff" d="M150 165h20v10h-20z"/><circle cx="170" cy="170" r="8.333" fill="#00c8ff"/><path fill="#00c8ff" d="M170 165h20v10h-20z"/><circle cx="190" cy="170" r="8.333" fill="#00c8ff"/><circle cx="270" cy="170" r="8.333" fill="#00c8ff"/><circle cx="330" cy="170" r="8.333" fill="#00c8ff"/><path fill="#00c8ff" d="M330 165h20v10h-20z"/><circle cx="350" cy="170" r="8.333" fill="#00c8ff"/><path fill="#00c8ff" d="M350 165h20v10h-20z"/><circle cx="370" cy="170" r="8.333" fill="#00c8ff"/><path fill="#00c8ff" d="M370 165h20v10h-20z"/><circle cx="390" cy="170" r="8.333" fill="#00c8ff"/><path fill="#00c8ff" d="M390 165h20v10h-20z"/><circle cx="410" cy="170" r="8.333" fill="#00c8ff"/><path fill="#00c8ff" d="M410 165h20v10h-20z"/><circle cx="430" cy="170" r="8.333" fill="#00c8ff"/><path fill="#00c8ff" d="M430 165h20v10h-20z"/><circle cx="450" cy="170" r="8.333" fill="#00c8ff"/><circle cx="510" cy="170" r="8.333" fill="#00c8ff"/><path fill="#00c8ff" d="M510 165h20v10h-20z"/><circle cx="530" cy="170" r="8.333" fill="#00c8ff"/><path fill="#00c8ff" d="M530 165h20v10h-20z"/><circle cx="550" cy="170" r="8.333" fill="#00c8ff"/><path fill="#00c8ff" d="M550 165h20v10h-20z"/><circle cx="570" cy="170" r="8.333" fill="#00c8ff"/><path fill="#00c8ff" d="M570 165h20v10h-20z"/><circle cx="590" cy="170" r="8.333" fill="#00c8ff"/><circle cx="650" cy="170" r="8.333" fill="#00c8ff"/><circle cx="10" cy="190" r="8.333" fill="#00c8ff"/><path fill="#00c8ff" d="M10 185h20v10H10z"/><circle cx="30" cy="190" r="8.333" fill="#00c8ff"/><path fill="#00c8ff" d="M30 185h20v10H30z"/><circle cx="50" cy="190" r="8.333" fill="#00c8ff"/><path fill="#00c8ff" d="M50 185h20v10H50z"/><circle cx="70" cy="190" r="8.333" fill="#00c8ff"/><circle cx="110" cy="190" r="8.333" fill="#00c8ff"/><circle cx="150" cy="190" r="8.333" fill="#00c8ff"/><path fill="#00c8ff" d="M150 185h20v10h-20z"/><circle cx="170" cy="190" r="8.333" fill="#00c8ff"/><circle cx="230" cy="190" r="8.333" fill="#00c8ff"/><circle cx="270" cy="190" r="8.333" fill="#00c8ff"/><circle cx="330" cy="190" r="8.333" fill="#00c8ff"/><circle cx="370" cy="190" r="8.333" fill="#00c8ff"/><path fill="#00c8ff" d="M370 185h20v10h-20z"/><circle cx="390" cy="190" r="8.333" fill="#00c8ff"/><path fill="#00c8ff" d="M390 185h20v10h-20z"/><circle cx="410" cy="190" r="8.333" fill="#00c8ff"/><circle cx="450" cy="190" r="8.333" fill="#00c8ff"/><circle cx="490" cy="190" r="8.333" fill="#00c8ff"/><path fill="#00c8ff" d="M490 185h20v10h-20z"/><circle cx="510" cy="190" r="8.333" fill="#00c8ff"/><circle cx="570" cy="190" r="8.333" fill="#00c8ff"/><path fill="#00c8ff" d="M570 185h20v10h-20z"/><circle cx="590" cy="190" r="8.333" fill="#00c8ff"/><path fill="#00c8ff" d="M590 185h20v10h-20z"/><circle cx="610" cy="190" r="8.333" fill="#00c8ff"/><circle cx="650" cy="190" r="8.333" fill="#00c8ff"/><circle cx="50" cy="210" r="8.333" fill="#00c8ff"/><circle cx="90" cy="210" r="8.333" fill="#00c8ff"/><path fill="#00c8ff" d="M90 205h20v10H90z"/><circle cx="110" cy="210" r="8.333" fill="#00c8ff"/><path fill="#00c8ff" d="M110 205h20v10h-20z"/><circle cx="130" cy="210" r="8.333" fill="#00c8ff"/><circle cx="170" cy="210" r="8.333" fill="#00c8ff"/><circle cx="210" cy="210" r="8.333" fill="#00c8ff"/><path fill="#00c8ff" d="M210 205h20v10h-20z"/><circle cx="230" cy="210" r="8.333" fill="#00c8ff"/><path fill="#00c8ff" d="M230 205h20v10h-20z"/><circle cx="250" cy="210" r="8.333" fill="#00c8ff"/><circle cx="310" cy="210" r="8.333" fill="#00c8ff"/><path fill="#00c8ff" d="M310 205h20v10h-20z"/><circle cx="330" cy="210" r="8.333" fill="#00c8ff"/><path fill="#00c8ff" d="M330 205h20v10h-20z"/><circle cx="350" cy="210" r="8.333" fill="#00c8ff"/><circle cx="390" cy="210" r="8.333" fill="#00c8ff"/><circle cx="450" cy="210" r="8.333" fill="#00c8ff"/><circle cx="510" cy="210" r="8.333" fill="#00c8ff"/><circle cx="590" cy="210" r="8.333" fill="#00c8ff"/><path fill="#00c8ff" d="M590 205h20v10h-20z"/><circle cx="610" cy="210" r="8.333" fill="#00c8ff"/><path fill="#00c8ff" d="M610 205h20v10h-20z"/><circle cx="630" cy="210" r="8.333" fill="#00c8ff"/><circle cx="90" cy="230" r="8.333" fill="#00c8ff"/><circle cx="150" cy="230" r="8.333" fill="#00c8ff"/><path fill="#00c8ff" d="M150 225h20v10h-20z"/><circle cx="170" cy="230" r="8.333" fill="#00c8ff"/><circle cx="230" cy="230" r="8.333" fill="#00c8ff"/><circle cx="290" cy="230" r="8.333" fill="#00c8ff"/><circle cx="350" cy="230" r="8.333" fill="#00c8ff"/><path fill="#00c8ff" d="M350 225h20v10h-20z"/><circle cx="370" cy="230" r="8.333" fill="#00c8ff"/><path fill="#00c8ff" d="M370 225h20v10h-20z"/><circle cx="390" cy="230" r="8.333" fill="#00c8ff"/><path fill="#00c8ff" d="M390 225h20v10h-20z"/><circle cx="410" cy="230" r="8.333" fill="#00c8ff"/><circle cx="450" cy="230" r="8.333" fill="#00c8ff"/><circle cx="490" cy="230" r="8.333" fill="#00c8ff"/><circle cx="530" cy="230" r="8.333" fill="#00c8ff"/><path fill="#00c8ff" d="M530 225h20v10h-20z"/><circle cx="550" cy="230" r="8.333" fill="#00c8ff"/><path fill="#00c8ff" d="M550 225h20v10h-20z"/><circle cx="570" cy="230" r="8.333" fill="#00c8ff"/><path fill="#00c8ff" d="M570 225h20v10h-20z"/><circle cx="590" cy="230" r="8.333" fill="#00c8ff"/><path fill="#00c8ff" d="M590 225h20v10h-20z"/><circle cx="610" cy="230" r="8.333" fill="#00c8ff"/><circle cx="650" cy="230" r="8.333" fill="#00c8ff"/><circle cx="10" cy="250" r="8.333" fill="#00c8ff"/><path fill="#00c8ff" d="M10 245h20v10H10z"/><circle cx="30" cy="250" r="8.333" fill="#00c8ff"/><path fill="#00c8ff" d="M30 245h20v10H30z"/><circle cx="50" cy="250" r="8.333" fill="#00c8ff"/><path fill="#00c8ff" d="M50 245h20v10H50z"/><circle cx="70" cy="250" r="8.333" fill="#00c8ff"/><circle cx="130" cy="250" r="8.333" fill="#00c8ff"/><circle cx="170" cy="250" r="8.333" fill="#00c8ff"/><path fill="#00c8ff" d="M170 245h20v10h-20z"/><circle cx="190" cy="250" r="8.333" fill="#00c8ff"/><circle cx="250" cy="250" r="8.333" fill="#00c8ff"/><path fill="#00c8ff" d="M250 245h20v10h-20z"/><circle cx="270" cy="250" r="8.333" fill="#00c8ff"/><path fill="#00c8ff" d="M270 245h20v10h-20z"/><circle cx="290" cy="250" r="8.333" fill="#00c8ff"/><circle cx="370" cy="250" r="8.333" fill="#00c8ff"/><path fill="#00c8ff" d="M370 245h20v10h-20z"/><circle cx="390" cy="250" r="8.333" fill="#00c8ff"/><circle cx="450" cy="250" r="8.333" fill="#00c8ff"/><circle cx="550" cy="250" r="8.333" fill="#00c8ff"/><circle cx="610" cy="250" r="8.333" fill="#00c8ff"/><circle cx="650" cy="250" r="8.333" fill="#00c8ff"/><circle cx="70" cy="270" r="8.333" fill="#00c8ff"/><path fill="#00c8ff" d="M70 265h20v10H70z"/><circle cx="90" cy="270" r="8.333" fill="#00c8ff"/><circle cx="150" cy="270" r="8.333" fill="#00c8ff"/><circle cx="190" cy="270" r="8.333" fill="#00c8ff"/><path fill="#00c8ff" d="M190 265h20v10h-20z"/><circle cx="210" cy="270" r="8.333" fill="#00c8ff"/><circle cx="250" cy="270" r="8.333" fill="#00c8ff"/><path fill="#00c8ff" d="M250 265h20v10h-20z"/><circle cx="270" cy="270" r="8.333" fill="#00c8ff"/><circle cx="330" cy="270" r="8.333" fill="#00c8ff"/><circle cx="450" cy="270" r="8.333" fill="#00c8ff"/><circle cx="490" cy="270" r="8.333" fill="#00c8ff"/><path fill="#00c8ff" d="M490 265h20v10h-20z"/><circle cx="510" cy="270" r="8.333" fill="#00c8ff"/><circle cx="570" cy="270" r="8.333" fill="#00c8ff"/><circle cx="610" cy="270" r="8.333" fill="#00c8ff"/><path fill="#00c8ff" d="M610 265h20v10h-20z"/><circle cx="630" cy="270" r="8.333" fill="#00c8ff"/><circle cx="50" cy="290" r="8.333" fill="#00c8ff"/><path fill="#00c8ff" d="M50 285h20v10H50z"/><circle cx="70" cy="290" r="8.333" fill="#00c8ff"/><path fill="#00c8ff" d="M70 285h20v10H70z"/><circle cx="90" cy="290" r="8.333" fill="#00c8ff"/><path fill="#00c8ff" d="M90 285h20v10H90z"/><circle cx="110" cy="290" r="8.333" fill="#00c8ff"/><path fill="#00c8ff" d="M110 285h20v10h-20z"/><circle cx="130" cy="290" r="8.333" fill="#00c8ff"/><path fill="#00c8ff" d="M130 285h20v10h-20z"/><circle cx="150" cy="290" r="8.333" fill="#00c8ff"/><path fill="#00c8ff" d="M150 285h20v10h-20z"/><circle cx="170" cy="290" r="8.333" fill="#00c8ff"/><circle cx="210" cy="290" r="8.333" fill="#00c8ff"/><path fill="#00c8ff" d="M210 285h20v10h-20z"/><circle cx="230" cy="290" r="8.333" fill="#00c8ff"/><circle cx="330" cy="290" r="8.333" fill="#00c8ff"/><circle cx="390" cy="290" r="8.333" fill="#00c8ff"/><circle cx="550" cy="290" r="8.333" fill="#00c8ff"/><circle cx="590" cy="290" r="8.333" fill="#00c8ff"/><path fill="#00c8ff" d="M590 285h20v10h-20z"/><circle cx="610" cy="290" r="8.333" fill="#00c8ff"/><circle cx="10" cy="310" r="8.333" fill="#00c8ff"/><circle cx="50" cy="310" r="8.333" fill="#00c8ff"/><circle cx="90" cy="310" r="8.333" fill="#00c8ff"/><circle cx="230" cy="310" r="8.333" fill="#00c8ff"/><path fill="#00c8ff" d="M230 305h20v10h-20z"/><circle cx="250" cy="310" r="8.333" fill="#00c8ff"/><circle cx="290" cy="310" r="8.333" fill="#00c8ff"/><circle cx="390" cy="310" r="8.333" fill="#00c8ff"/><circle cx="430" cy="310" r="8.333" fill="#00c8ff"/><circle cx="490" cy="310" r="8.333" fill="#00c8ff"/><circle cx="530" cy="310" r="8.333" fill="#00c8ff"/><circle cx="570" cy="310" r="8.333" fill="#00c8ff"/><circle cx="610" cy="310" r="8.333" fill="#00c8ff"/><path fill="#00c8ff" d="M610 305h20v10h-20z"/><circle cx="630" cy="310" r="8.333" fill="#00c8ff"/><path fill="#00c8ff" d="M630 305h20v10h-20z"/><circle cx="650" cy="310" r="8.333" fill="#00c8ff"/><circle cx="30" cy="330" r="8.333" fill="#00c8ff"/><path fill="#00c8ff" d="M30 325h20v10H30z"/><circle cx="50" cy="330" r="8.333" fill="#00c8ff"/><path fill="#00c8ff" d="M50 325h20v10H50z"/><circle cx="70" cy="330" r="8.333" fill="#00c8ff"/><path fill="#00c8ff" d="M70 325h20v10H70z"/><circle cx="90" cy="330" r="8.333" fill="#00c8ff"/><circle cx="130" cy="330" r="8.333" fill="#00c8ff"/><path fill="#00c8ff" d="M130 325h20v10h-20z"/><circle cx="150" cy="330" r="8.333" fill="#00c8ff"/><path fill="#00c8ff" d="M150 325h20v10h-20z"/><circle cx="170" cy="330" r="8.333" fill="#00c8ff"/><path fill="#00c8ff" d="M170 325h20v10h-20z"/><circle cx="190" cy="330" r="8.333" fill="#00c8ff"/><path fill="#00c8ff" d="M190 325h20v10h-20z"/><circle cx="210" cy="330" r="8.333" fill="#00c8ff"/><circle cx="270" cy="330" r="8.333" fill="#00c8ff"/><path fill="#00c8ff" d="M270 325h20v10h-20z"/><circle cx="290" cy="330" r="8.333" fill="#00c8ff"/><path fill="#00c8ff" d="M290 325h20v10h-20z"/><circle cx="310" cy="330" r="8.333" fill="#00c8ff"/><circle cx="350" cy="330" r="8.333" fill="#00c8ff"/><circle cx="390" cy="330" r="8.333" fill="#00c8ff"/><path fill="#00c8ff" d="M390 325h20v10h-20z"/><circle cx="410" cy="330" r="8.333" fill="#00c8ff"/><path fill="#00c8ff" d="M410 325h20v10h-20z"/><circle cx="430" cy="330" r="8.333" fill="#00c8ff"/><circle cx="490" cy="330" r="8.333" fill="#00c8ff"/><circle cx="550" cy="330" r="8.333" fill="#00c8ff"/><path fill="#00c8ff" d="M550 325h20v10h-20z"/><circle cx="570" cy="330" r="8.333" fill="#00c8ff"/><path fill="#00c8ff" d="M570 325h20v10h-20z"/><circle cx="590" cy="330" r="8.333" fill="#00c8ff"/><path fill="#00c8ff" d="M590 325h20v10h-20z"/><circle cx="610" cy="330" r="8.333" fill="#00c8ff"/><path fill="#00c8ff" d="M610 325h20v10h-20z"/><circle cx="630" cy="330" r="8.333" fill="#00c8ff"/><path fill="#00c8ff" d="M630 325h20v10h-20z"/><circle cx="650" cy="330" r="8.333" fill="#00c8ff"/><circle cx="70" cy="350" r="8.333" fill="#00c8ff"/><path fill="#00c8ff" d="M70 345h20v10H70z"/><circle cx="90" cy="350" r="8.333" fill="#00c8ff"/><circle cx="150" cy="350" r="8.333" fill="#00c8ff"/><circle cx="210" cy="350" r="8.333" fill="#00c8ff"/><circle cx="270" cy="350" r="8.333" fill="#00c8ff"/><circle cx="310" cy="350" r="8.333" fill="#00c8ff"/><circle cx="350" cy="350" r="8.333" fill="#00c8ff"/><path fill="#00c8ff" d="M350 345h20v10h-20z"/><circle cx="370" cy="350" r="8.333" fill="#00c8ff"/><path fill="#00c8ff" d="M370 345h20v10h-20z"/><circle cx="390" cy="350" r="8.333" fill="#00c8ff"/><circle cx="450" cy="350" r="8.333" fill="#00c8ff"/><circle cx="590" cy="350" r="8.333" fill="#00c8ff"/><path fill="#00c8ff" d="M590 345h20v10h-20z"/><circle cx="610" cy="350" r="8.333" fill="#00c8ff"/><circle cx="110" cy="370" r="8.333" fill="#00c8ff"/><path fill="#00c8ff" d="M110 365h20v10h-20z"/><circle cx="130" cy="370" r="8.333" fill="#00c8ff"/><path fill="#00c8ff" d="M130 365h20v10h-20z"/><circle cx="150" cy="370" r="8.333" fill="#00c8ff"/><path fill="#00c8ff" d="M150 365h20v10h-20z"/><circle cx="170" cy="370" r="8.333" fill="#00c8ff"/><path fill="#00c8ff" d="M170 365h20v10h-20z"/><circle cx="190" cy="370" r="8.333" fill="#00c8ff"/><circle cx="230" cy="370" r="8.333" fill="#00c8ff"/><path fill="#00c8ff" d="M230 365h20v10h-20z"/><circle cx="250" cy="370" r="8.333" fill="#00c8ff"/><circle cx="310" cy="370" r="8.333" fill="#00c8ff"/><circle cx="370" cy="370" r="8.333" fill="#00c8ff"/><circle cx="410" cy="370" r="8.333" fill="#00c8ff"/><circle cx="510" cy="370" r="8.333" fill="#00c8ff"/><circle cx="610" cy="370" r="8.333" fill="#00c8ff"/><circle cx="50" cy="390" r="8.333" fill="#00c8ff"/><circle cx="90" cy="390" r="8.333" fill="#00c8ff"/><path fill="#00c8ff" d="M90 385h20v10H90z"/><circle cx="110" cy="390" r="8.333" fill="#00c8ff"/><circle cx="150" cy="390" r="8.333" fill="#00c8ff"/><path fill="#00c8ff" d="M150 385h20v10h-20z"/><circle cx="170" cy="390" r="8.333" fill="#00c8ff"/><circle cx="210" cy="390" r="8.333" fill="#00c8ff"/><path fill="#00c8ff" d="M210 385h20v10h-20z"/><circle cx="230" cy="390" r="8.333" fill="#00c8ff"/><path fill="#00c8ff" d="M230 385h20v10h-20z"/><circle cx="250" cy="390" r="8.333" fill="#00c8ff"/><circle cx="290" cy="390" r="8.333" fill="#00c8ff"/><circle cx="390" cy="390" r="8.333" fill="#00c8ff"/><path fill="#00c8ff" d="M390 385h20v10h-20z"/><circle cx="410" cy="390" r="8.333" fill="#00c8ff"/><path fill="#00c8ff" d="M410 385h20v10h-20z"/><circle cx="430" cy="390" r="8.333" fill="#00c8ff"/><path fill="#00c8ff" d="M430 385h20v10h-20z"/><circle cx="450" cy="390" r="8.333" fill="#00c8ff"/><circle cx="490" cy="390" r="8.333" fill="#00c8ff"/><circle cx="530" cy="390" r="8.333" fill="#00c8ff"/><circle cx="570" cy="390" r="8.333" fill="#00c8ff"/><circle cx="630" cy="390" r="8.333" fill="#00c8ff"/><path fill="#00c8ff" d="M630 385h20v10h-20z"/><circle cx="650" cy="390" r="8.333" fill="#00c8ff"/><circle cx="30" cy="410" r="8.333" fill="#00c8ff"/><path fill="#00c8ff" d="M30 405h20v10H30z"/><circle cx="50" cy="410" r="8.333" fill="#00c8ff"/><circle cx="90" cy="410" r="8.333" fill="#00c8ff"/><path fill="#00c8ff" d="M90 405h20v10H90z"/><circle cx="110" cy="410" r="8.333" fill="#00c8ff"/><path fill="#00c8ff" d="M110 405h20v10h-20z"/><circle cx="130" cy="410" r="8.333" fill="#00c8ff"/><circle cx="170" cy="410" r="8.333" fill="#00c8ff"/><path fill="#00c8ff" d="M170 405h20v10h-20z"/><circle cx="190" cy="410" r="8.333" fill="#00c8ff"/><path fill="#00c8ff" d="M190 405h20v10h-20z"/><circle cx="210" cy="410" r="8.333" fill="#00c8ff"/><circle cx="270" cy="410" r="8.333" fill="#00c8ff"/><path fill="#00c8ff" d="M270 405h20v10h-20z"/><circle cx="290" cy="410" r="8.333" fill="#00c8ff"/><circle cx="330" cy="410" r="8.333" fill="#00c8ff"/><circle cx="390" cy="410" r="8.333" fill="#00c8ff"/><circle cx="450" cy="410" r="8.333" fill="#00c8ff"/><circle cx="490" cy="410" r="8.333" fill="#00c8ff"/><circle cx="530" cy="410" r="8.333" fill="#00c8ff"/><path fill="#00c8ff" d="M530 405h20v10h-20z"/><circle cx="550" cy="410" r="8.333" fill="#00c8ff"/><path fill="#00c8ff" d="M550 405h20v10h-20z"/><circle cx="570" cy="410" r="8.333" fill="#00c8ff"/><circle cx="610" cy="410" r="8.333" fill="#00c8ff"/><circle cx="650" cy="410" r="8.333" fill="#00c8ff"/><circle cx="10" cy="430" r="8.333" fill="#00c8ff"/><path fill="#00c8ff" d="M10 425h20v10H10z"/><circle cx="30" cy="430" r="8.333" fill="#00c8ff"/><circle cx="90" cy="430" r="8.333" fill="#00c8ff"/><circle cx="170" cy="430" r="8.333" fill="#00c8ff"/><path fill="#00c8ff" d="M170 425h20v10h-20z"/><circle cx="190" cy="430" r="8.333" fill="#00c8ff"/><circle cx="230" cy="430" r="8.333" fill="#00c8ff"/><path fill="#00c8ff" d="M230 425h20v10h-20z"/><circle cx="250" cy="430" r="8.333" fill="#00c8ff"/><circle cx="370" cy="430" r="8.333" fill="#00c8ff"/><circle cx="410" cy="430" r="8.333" fill="#00c8ff"/><circle cx="470" cy="430" r="8.333" fill="#00c8ff"/><path fill="#00c8ff" d="M470 425h20v10h-20z"/><circle cx="490" cy="430" r="8.333" fill="#00c8ff"/><circle cx="530" cy="430" r="8.333" fill="#00c8ff"/><path fill="#00c8ff" d="M530 425h20v10h-20z"/><circle cx="550" cy="430" r="8.333" fill="#00c8ff"/><circle cx="590" cy="430" r="8.333" fill="#00c8ff"/><path fill="#00c8ff" d="M590 425h20v10h-20z"/><circle cx="610" cy="430" r="8.333" fill="#00c8ff"/><path fill="#00c8ff" d="M610 425h20v10h-20z"/><circle cx="630" cy="430" r="8.333" fill="#00c8ff"/><path fill="#00c8ff" d="M630 425h20v10h-20z"/><circle cx="650" cy="430" r="8.333" fill="#00c8ff"/><circle cx="70" cy="450" r="8.333" fill="#00c8ff"/><circle cx="130" cy="450" r="8.333" fill="#00c8ff"/><path fill="#00c8ff" d="M130 445h20v10h-20z"/><circle cx="150" cy="450" r="8.333" fill="#00c8ff"/><circle cx="190" cy="450" r="8.333" fill="#00c8ff"/><circle cx="230" cy="450" r="8.333" fill="#00c8ff"/><path fill="#00c8ff" d="M230 445h20v10h-20z"/><circle cx="250" cy="450" r="8.333" fill="#00c8ff"/><circle cx="290" cy="450" r="8.333" fill="#00c8ff"/><path fill="#00c8ff" d="M290 445h20v10h-20z"/><circle cx="310" cy="450" r="8.333" fill="#00c8ff"/><circle cx="370" cy="450" r="8.333" fill="#00c8ff"/><circle cx="410" cy="450" r="8.333" fill="#00c8ff"/><circle cx="450" cy="450" r="8.333" fill="#00c8ff"/><path fill="#00c8ff" d="M450 445h20v10h-20z"/><circle cx="470" cy="450" r="8.333" fill="#00c8ff"/><path fill="#00c8ff" d="M470 445h20v10h-20z"/><circle cx="490" cy="450" r="8.333" fill="#00c8ff"/><circle cx="550" cy="450" r="8.333" fill="#00c8ff"/><circle cx="590" cy="450" r="8.333" fill="#00c8ff"/><path fill="#00c8ff" d="M590 445h20v10h-20z"/><circle cx="610" cy="450" r="8.333" fill="#00c8ff"/><path fill="#00c8ff" d="M610 445h20v10h-20z"/><circle cx="630" cy="450" r="8.333" fill="#00c8ff"/><circle cx="50" cy="470" r="8.333" fill="#00c8ff"/><path fill="#00c8ff" d="M50 465h20v10H50z"/><circle cx="70" cy="470" r="8.333" fill="#00c8ff"/><path fill="#00c8ff" d="M70 465h20v10H70z"/><circle cx="90" cy="470" r="8.333" fill="#00c8ff"/><path fill="#00c8ff" d="M90 465h20v10H90z"/><circle cx="110" cy="470" r="8.333" fill="#00c8ff"/><circle cx="150" cy="470" r="8.333" fill="#00c8ff"/><circle cx="210" cy="470" r="8.333" fill="#00c8ff"/><path fill="#00c8ff" d="M210 465h20v10h-20z"/><circle cx="230" cy="470" r="8.333" fill="#00c8ff"/><circle cx="270" cy="470" r="8.333" fill="#00c8ff"/><circle cx="310" cy="470" r="8.333" fill="#00c8ff"/><path fill="#00c8ff" d="M310 465h20v10h-20z"/><circle cx="330" cy="470" r="8.333" fill="#00c8ff"/><circle cx="390" cy="470" r="8.333" fill="#00c8ff"/><path fill="#00c8ff" d="M390 465h20v10h-20z"/><circle cx="410" cy="470" r="8.333" fill="#00c8ff"/><circle cx="450" cy="470" r="8.333" fill="#00c8ff"/><circle cx="490" cy="470" r="8.333" fill="#00c8ff"/><circle cx="530" cy="470" r="8.333" fill="#00c8ff"/><circle cx="570" cy="470" r="8.333" fill="#00c8ff"/><circle cx="650" cy="470" r="8.333" fill="#00c8ff"/><circle cx="10" cy="490" r="8.333" fill="#00c8ff"/><path fill="#00c8ff" d="M10 485h20v10H10z"/><circle cx="30" cy="490" r="8.333" fill="#00c8ff"/><path fill="#00c8ff" d="M30 485h20v10H30z"/><circle cx="50" cy="490" r="8.333" fill="#00c8ff"/><path fill="#00c8ff" d="M50 485h20v10H50z"/><circle cx="70" cy="490" r="8.333" fill="#00c8ff"/><path fill="#00c8ff" d="M70 485h20v10H70z"/><circle cx="90" cy="490" r="8.333" fill="#00c8ff"/><circle cx="130" cy="490" r="8.333" fill="#00c8ff"/><circle cx="190" cy="490" r="8.333" fill="#00c8ff"/><path fill="#00c8ff" d="M190 485h20v10h-20z"/><circle cx="210" cy="490" r="8.333" fill="#00c8ff"/><path fill="#00c8ff" d="M210 485h20v10h-20z"/><circle cx="230" cy="490" r="8.333" fill="#00c8ff"/><path fill="#00c8ff" d="M230 485h20v10h-20z"/><circle cx="250" cy="490" r="8.333" fill="#00c8ff"/><path fill="#00c8ff" d="M250 485h20v10h-20z"/><circle cx="270" cy="490" r="8.333" fill="#00c8ff"/><circle cx="330" cy="490" r="8.333" fill="#00c8ff"/><circle cx="370" cy="490" r="8.333" fill="#00c8ff"/><path fill="#00c8ff" d="M370 485h20v10h-20z"/><circle cx="390" cy="490" r="8.333" fill="#00c8ff"/><circle cx="430" cy="490" r="8.333" fill="#00c8ff"/><path fill="#00c8ff" d="M430 485h20v10h-20z"/><circle cx="450" cy="490" r="8.333" fill="#00c8ff"/><circle cx="490" cy="490" r="8.333" fill="#00c8ff"/><path fill="#00c8ff" d="M490 485h20v10h-20z"/><circle cx="510" cy="490" r="8.333" fill="#00c8ff"/><path fill="#00c8ff" d="M510 485h20v10h-20z"/><circle cx="530" cy="490" r="8.333" fill="#00c8ff"/><path fill="#00c8ff" d="M530 485h20v10h-20z"/><circle cx="550" cy="490" r="8.333" fill="#00c8ff"/><path fill="#00c8ff" d="M550 485h20v10h-20z"/><circle cx="570" cy="490" r="8.333" fill="#00c8ff"/><path fill="#00c8ff" d="M570 485h20v10h-20z"/><circle cx="590" cy="490" r="8.333" fill="#00c8ff"/><path fill="#00c8ff" d="M590 485h20v10h-20z"/><circle cx="610" cy="490" r="8.333" fill="#00c8ff"/><path fill="#00c8ff" d="M610 485h20v10h-20z"/><circle cx="630" cy="490" r="8.333" fill="#00c8ff"/><circle cx="170" cy="510" r="8.333" fill="#00c8ff"/><circle cx="210" cy="510" r="8.333" fill="#00c8ff"/><path fill="#00c8ff" d="M210 505h20v10h-20z"/><circle cx="230" cy="510" r="8.333" fill="#00c8ff"/><path fill="#00c8ff" d="M230 505h20v10h-20z"/><circle cx="250" cy="510" r="8.333" fill="#00c8ff"/><circle cx="290" cy="510" r="8.333" fill="#00c8ff"/><path fill="#00c8ff" d="M290 505h20v10h-20z"/><circle cx="310" cy="510" r="8.333" fill="#00c8ff"/><path fill="#00c8ff" d="M310 505h20v10h-20z"/><circle cx="330" cy="510" r="8.333" fill="#00c8ff"/><circle cx="390" cy="510" r="8.333" fill="#00c8ff"/><path fill="#00c8ff" d="M390 505h20v10h-20z"/><circle cx="410" cy="510" r="8.333" fill="#00c8ff"/><circle cx="470" cy="510" r="8.333" fill="#00c8ff"/><path fill="#00c8ff" d="M470 505h20v10h-20z"/><circle cx="490" cy="510" r="8.333" fill="#00c8ff"/><circle cx="570" cy="510" r="8.333" fill="#00c8ff"/><path fill="#00c8ff" d="M570 505h20v10h-20z"/><circle cx="590" cy="510" r="8.333" fill="#00c8ff"/><path fill="#00c8ff" d="M590 505h20v10h-20z"/><circle cx="610" cy="510" r="8.333" fill="#00c8ff"/><path fill="#00c8ff" d="M610 505h20v10h-20z"/><circle cx="630" cy="510" r="8.333" fill="#00c8ff"/><circle cx="170" cy="530" r="8.333" fill="#00c8ff"/><path fill="#00c8ff" d="M170 525h20v10h-20z"/><circle cx="190" cy="530" r="8.333" fill="#00c8ff"/><circle cx="270" cy="530" r="8.333" fill="#00c8ff"/><path fill="#00c8ff" d="M270 525h20v10h-20z"/><circle cx="290" cy="530" r="8.333" fill="#00c8ff"/><circle cx="330" cy="530" r="8.333" fill="#00c8ff"/><path fill="#00c8ff" d="M330 525h20v10h-20z"/><circle cx="350" cy="530" r="8.333" fill="#00c8ff"/><circle cx="390" cy="530" r="8.333" fill="#00c8ff"/><circle cx="490" cy="530" r="8.333" fill="#00c8ff"/><circle cx="530" cy="530" r="8.333" fill="#00c8ff"/><circle cx="570" cy="530" r="8.333" fill="#00c8ff"/><circle cx="610" cy="530" r="8.333" fill="#00c8ff"/><circle cx="190" cy="550" r="8.333" fill="#00c8ff"/><circle cx="330" cy="550" r="8.333" fill="#00c8ff"/><path fill="#00c8ff" d="M330 545h20v10h-20z"/><circle cx="350" cy="550" r="8.333" fill="#00c8ff"/><path fill="#00c8ff" d="M350 545h20v10h-20z"/><circle cx="370" cy="550" r="8.333" fill="#00c8ff"/><path fill="#00c8ff" d="M370 545h20v10h-20z"/><circle cx="390" cy="550" r="8.333" fill="#00c8ff"/><path fill="#00c8ff" d="M390 545h20v10h-20z"/><circle cx="410" cy="550" r="8.333" fill="#00c8ff"/><circle cx="450" cy="550" r="8.333" fill="#00c8ff"/><circle cx="490" cy="550" r="8.333" fill="#00c8ff"/><circle cx="570" cy="550" r="8.333" fill="#00c8ff"/><circle cx="630" cy="550" r="8.333" fill="#00c8ff"/><path fill="#00c8ff" d="M630 545h20v10h-20z"/><circle cx="650" cy="550" r="8.333" fill="#00c8ff"/><circle cx="170" cy="570" r="8.333" fill="#00c8ff"/><path fill="#00c8ff" d="M170 565h20v10h-20z"/><circle cx="190" cy="570" r="8.333" fill="#00c8ff"/><circle cx="230" cy="570" r="8.333" fill="#00c8ff"/><path fill="#00c8ff" d="M230 565h20v10h-20z"/><circle cx="250" cy="570" r="8.333" fill="#00c8ff"/><circle cx="370" cy="570" r="8.333" fill="#00c8ff"/><path fill="#00c8ff" d="M370 565h20v10h-20z"/><circle cx="390" cy="570" r="8.333" fill="#00c8ff"/><circle cx="430" cy="570" r="8.333" fill="#00c8ff"/><path fill="#00c8ff" d="M430 565h20v10h-20z"/><circle cx="450" cy="570" r="8.333" fill="#00c8ff"/><path fill="#00c8ff" d="M450 565h20v10h-20z"/><circle cx="470" cy="570" r="8.333" fill="#00c8ff"/><path fill="#00c8ff" d="M470 565h20v10h-20z"/><circle cx="490" cy="570" r="8.333" fill="#00c8ff"/><path fill="#00c8ff" d="M490 565h20v10h-20z"/><circle cx="510" cy="570" r="8.333" fill="#00c8ff"/><path fill="#00c8ff" d="M510 565h20v10h-20z"/><circle cx="530" cy="570" r="8.333" fill="#00c8ff"/><path fill="#00c8ff" d="M530 565h20v10h-20z"/><circle cx="550" cy="570" r="8.333" fill="#00c8ff"/><path fill="#00c8ff" d="M550 565h20v10h-20z"/><circle cx="570" cy="570" r="8.333" fill="#00c8ff"/><circle cx="610" cy="570" r="8.333" fill="#00c8ff"/><circle cx="650" cy="570" r="8.333" fill="#00c8ff"/><circle cx="210" cy="590" r="8.333" fill="#00c8ff"/><circle cx="270" cy="590" r="8.333" fill="#00c8ff"/><circle cx="330" cy="590" r="8.333" fill="#00c8ff"/><circle cx="410" cy="590" r="8.333" fill="#00c8ff"/><circle cx="450" cy="590" r="8.333" fill="#00c8ff"/><circle cx="590" cy="590" r="8.333" fill="#00c8ff"/><path fill="#00c8ff" d="M590 585h20v10h-20z"/><circle cx="610" cy="590" r="8.333" fill="#00c8ff"/><circle cx="650" cy="590" r="8.333" fill="#00c8ff"/><circle cx="210" cy="610" r="8.333" fill="#00c8ff"/><path fill="#00c8ff" d="M210 605h20v10h-20z"/><circle cx="230" cy="610" r="8.333" fill="#00c8ff"/><circle cx="270" cy="610" r="8.333" fill="#00c8ff"/><path fill="#00c8ff" d="M270 605h20v10h-20z"/><circle cx="290" cy="610" r="8.333" fill="#00c8ff"/><circle cx="330" cy="610" r="8.333" fill="#00c8ff"/><circle cx="370" cy="610" r="8.333" fill="#00c8ff"/><circle cx="510" cy="610" r="8.333" fill="#00c8ff"/><path fill="#00c8ff" d="M510 605h20v10h-20z"/><circle cx="530" cy="610" r="8.333" fill="#00c8ff"/><path fill="#00c8ff" d="M530 605h20v10h-20z"/><circle cx="550" cy="610" r="8.333" fill="#00c8ff"/><path fill="#00c8ff" d="M550 605h20v10h-20z"/><circle cx="570" cy="610" r="8.333" fill="#00c8ff"/><path fill="#00c8ff" d="M570 605h20v10h-20z"/><circle cx="590" cy="610" r="8.333" fill="#00c8ff"/><path fill="#00c8ff" d="M590 605h20v10h-20z"/><circle cx="610" cy="610" r="8.333" fill="#00c8ff"/><circle cx="210" cy="630" r="8.333" fill="#00c8ff"/><circle cx="250" cy="630" r="8.333" fill="#00c8ff"/><circle cx="390" cy="630" r="8.333" fill="#00c8ff"/><path fill="#00c8ff" d="M390 625h20v10h-20z"/><circle cx="410" cy="630" r="8.333" fill="#00c8ff"/><path fill="#00c8ff" d="M410 625h20v10h-20z"/><circle cx="430" cy="630" r="8.333" fill="#00c8ff"/><path fill="#00c8ff" d="M430 625h20v10h-20z"/><circle cx="450" cy="630" r="8.333" fill="#00c8ff"/><circle cx="510" cy="630" r="8.333" fill="#00c8ff"/><circle cx="610" cy="630" r="8.333" fill="#00c8ff"/><path fill="#00c8ff" d="M610 625h20v10h-20z"/><circle cx="630" cy="630" r="8.333" fill="#00c8ff"/><path fill="#00c8ff" d="M630 625h20v10h-20z"/><circle cx="650" cy="630" r="8.333" fill="#00c8ff"/><circle cx="170" cy="650" r="8.333" fill="#00c8ff"/><path fill="#00c8ff" d="M170 645h20v10h-20z"/><circle cx="190" cy="650" r="8.333" fill="#00c8ff"/><path fill="#00c8ff" d="M190 645h20v10h-20z"/><circle cx="210" cy="650" r="8.333" fill="#00c8ff"/><circle cx="270" cy="650" r="8.333" fill="#00c8ff"/><circle cx="310" cy="650" r="8.333" fill="#00c8ff"/><path fill="#00c8ff" d="M310 645h20v10h-20z"/><circle cx="330" cy="650" r="8.333" fill="#00c8ff"/><path fill="#00c8ff" d="M330 645h20v10h-20z"/><circle cx="350" cy="650" r="8.333" fill="#00c8ff"/><circle cx="390" cy="650" r="8.333" fill="#00c8ff"/><circle cx="430" cy="650" r="8.333" fill="#00c8ff"/><path fill="#00c8ff" d="M430 645h20v10h-20z"/><circle cx="450" cy="650" r="8.333" fill="#00c8ff"/><path fill="#00c8ff" d="M450 645h20v10h-20z"/><circle cx="470" cy="650" r="8.333" fill="#00c8ff"/><path fill="#00c8ff" d="M470 645h20v10h-20z"/><circle cx="490" cy="650" r="8.333" fill="#00c8ff"/><path fill="#00c8ff" d="M490 645h20v10h-20z"/><circle cx="510" cy="650" r="8.333" fill="#00c8ff"/><circle cx="550" cy="650" r="8.333" fill="#00c8ff"/><circle cx="650" cy="650" r="8.333" fill="#00c8ff"/><path fill="#006885" fill-rule="evenodd" d="M0 0h112a28 28 0 0 1 28 28v112H28a28 28 0 0 1-28-28zm20 20h80a20 20 0 0 1 20 20v80H40a20 20 0 0 1-20-20zM520 0h140v112a28 28 0 0 1-28 28H520V28a28 28 0 0 1 28-28Zm20 20h100v80a20 20 0 0 1-20 20h-80V40a20 20 0 0 1 20-20Z"/><rect width="60" height="60" x="40" y="40" fill="#00c8ff" rx="20" ry="20"/><rect width="60" height="60" x="560" y="40" fill="#00c8ff" rx="20" ry="20"/><path fill="#006885" fill-rule="evenodd" d="M0 520h140v112a28 28 0 0 1-28 28H0V548a28 28 0 0 1 28-28Zm20 20h100v80a20 20 0 0 1-20 20H20v-80a20 20 0 0 1 20-20Z"/><rect width="60" height="60" x="40" y="560" fill="#00c8ff" rx="20" ry="20"/></svg></svg>